<?xml version="1.0" encoding="UTF-8" standalone="no"?>
<!DOCTYPE svg PUBLIC "-//W3C//DTD SVG 1.1//EN"
 "http://www.w3.org/Graphics/SVG/1.1/DTD/svg11.dtd">
<!-- Generated by graphviz version 2.43.0 (0)
 -->
<!-- Title: G Pages: 1 -->
<svg width="302pt" height="159pt"
 viewBox="0.00 0.00 302.41 159.43" xmlns="http://www.w3.org/2000/svg" xmlns:xlink="http://www.w3.org/1999/xlink">
<g id="graph0" class="graph" transform="scale(1 1) rotate(0) translate(4 155.43)">
<title>G</title><style>.edge>path:hover{stroke-width:8}</style>
<polygon fill="white" stroke="transparent" points="-4,4 -4,-155.43 298.41,-155.43 298.41,4 -4,4"/>
<!-- __main___py -->
<g id="node1" class="node">
<title>__main___py</title><style>.edge>path:hover{stroke-width:8}</style>
<ellipse fill="#995252" stroke="black" cx="139.09" cy="-18" rx="45.15" ry="18"/>
<text text-anchor="middle" x="139.09" y="-15.5" font-family="Helvetica,sans-Serif" font-size="10.00" fill="#ffffff">__main__.py</text>
</g>
<!-- sitecheck -->
<g id="node2" class="node">
<title>sitecheck</title><style>.edge>path:hover{stroke-width:8}</style>
<ellipse fill="#53b6b6" stroke="black" cx="37.09" cy="-130.21" rx="37.17" ry="18"/>
<text text-anchor="middle" x="37.09" y="-127.71" font-family="Helvetica,sans-Serif" font-size="10.00" fill="#000000">sitecheck</text>
</g>
<!-- sitecheck&#45;&gt;__main___py -->
<g id="edge1" class="edge">
<title>sitecheck&#45;&gt;__main___py</title><style>.edge>path:hover{stroke-width:8}</style>
<path fill="none" stroke="black" d="M63.69,-117.47C93.97,-103.69 139.28,-81.62 139.09,-73"/>
<path fill="none" stroke="black" d="M139.09,-72C138.89,-63.69 138.84,-54.63 138.84,-46.4"/>
<polygon fill="#53b6b6" stroke="black" points="142.35,-46.2 138.89,-36.19 135.35,-46.17 142.35,-46.2"/>
</g>
<!-- sitecheck_checker -->
<g id="node3" class="node">
<title>sitecheck_checker</title><style>.edge>path:hover{stroke-width:8}</style>
<ellipse fill="#53b6b6" stroke="black" cx="139.09" cy="-130.21" rx="46.84" ry="21.43"/>
<text text-anchor="middle" x="139.09" y="-133.21" font-family="Helvetica,sans-Serif" font-size="10.00" fill="#000000">sitecheck.</text>
<text text-anchor="middle" x="139.09" y="-122.21" font-family="Helvetica,sans-Serif" font-size="10.00" fill="#000000">checker</text>
</g>
<!-- sitecheck_checker&#45;&gt;__main___py -->
<g id="edge2" class="edge">
<title>sitecheck_checker&#45;&gt;__main___py</title><style>.edge>path:hover{stroke-width:8}</style>
<path fill="none" stroke="black" d="M139.31,-108.92C139.37,-98.23 139.36,-84.9 139.09,-73"/>
</g>
<!-- sitecheck_cli -->
<g id="node4" class="node">
<title>sitecheck_cli</title><style>.edge>path:hover{stroke-width:8}</style>
<ellipse fill="#53b6b6" stroke="black" cx="249.09" cy="-130.21" rx="45.15" ry="18"/>
<text text-anchor="middle" x="249.09" y="-127.71" font-family="Helvetica,sans-Serif" font-size="10.00" fill="#000000">sitecheck.cli</text>
</g>
<!-- sitecheck_cli&#45;&gt;__main___py -->
<g id="edge3" class="edge">
<title>sitecheck_cli&#45;&gt;__main___py</title><style>.edge>path:hover{stroke-width:8}</style>
<path fill="none" stroke="black" d="M218.52,-116.8C186.04,-103.15 139.29,-81.95 139.09,-73"/>
</g>
</g>
</svg>
